<svg xmlns="http://www.w3.org/2000/svg" width="1005" height="600"><rect width="1005" height="600" x="0" y="0" fill="#FFFFFF" id="background"/><g id="viz"><g transform="translate(0,0)"><g transform="translate(50,20)"><g id="distance" fill="#1f77b4"><rect x="651.9998324396782" y="156.856" width="92.00150804289544" height="403.144"/><rect x="558.9996648793566" y="279.75304" width="92.00150804289544" height="280.24696"/><rect x="465.99949731903484" y="14.756560000000007" width="92.00150804289544" height="545.24344"/><rect x="372.99932975871315" y="173.70136000000002" width="92.00150804289544" height="386.29864"/><rect x="279.99916219839145" y="506.81260000000003" width="92.00150804289544" height="53.18739999999997"/><rect x="186.99899463806972" y="160.23839999999998" width="92.00150804289544" height="399.76160000000004"/><rect x="93.998827077748" y="149.99067999999997" width="92.00150804289544" height="410.00932"/><rect x="0.9986595174262902" y="167.69143999999997" width="92.00150804289544" height="392.30856000000006"/></g><g id="xAxis" transform="translate(0,560)" fill="none" font-size="10" font-family="sans-serif" text-anchor="middle"><path class="domain" stroke="currentColor" d="M0,0H745"/><g class="tick" opacity="1" transform="translate(46.99941353887401,0)"><line stroke="currentColor" y2="6"/><text fill="currentColor" y="9" dy="0.71em">470873874964185294.fit</text></g><g class="tick" opacity="1" transform="translate(139.99958109919572,0)"><line stroke="currentColor" y2="6"/><text fill="currentColor" y="9" dy="0.71em">470929022358946093.fit</text></g><g class="tick" opacity="1" transform="translate(232.99974865951742,0)"><line stroke="currentColor" y2="6"/><text fill="currentColor" y="9" dy="0.71em">470974538530717797.fit</text></g><g class="tick" opacity="1" transform="translate(325.9999162198392,0)"><line stroke="currentColor" y2="6"/><text fill="currentColor" y="9" dy="0.71em">470974543092023398.fit</text></g><g class="tick" opacity="1" transform="translate(419.0000837801609,0)"><line stroke="currentColor" y2="6"/><text fill="currentColor" y="9" dy="0.71em">471016698210713801.fit</text></g><g class="tick" opacity="1" transform="translate(512.0002513404826,0)"><line stroke="currentColor" y2="6"/><text fill="currentColor" y="9" dy="0.71em">471036758392340789.fit</text></g><g class="tick" opacity="1" transform="translate(605.0004189008043,0)"><line stroke="currentColor" y2="6"/><text fill="currentColor" y="9" dy="0.71em">471108852371194058.fit</text></g><g class="tick" opacity="1" transform="translate(698.000586461126,0)"><line stroke="currentColor" y2="6"/><text fill="currentColor" y="9" dy="0.71em">471149511484407920.fit</text></g></g><g id="yAxis" fill="none" font-size="10" font-family="sans-serif" text-anchor="end"><path class="domain" stroke="currentColor" d="M0,560V0"/><g class="tick" opacity="1" transform="translate(0,560)"><line stroke="currentColor" x2="-6"/><text fill="currentColor" x="-9" dy="0.32em">0</text></g><g class="tick" opacity="1" transform="translate(0,504)"><line stroke="currentColor" x2="-6"/><text fill="currentColor" x="-9" dy="0.32em">2,000</text></g><g class="tick" opacity="1" transform="translate(0,448)"><line stroke="currentColor" x2="-6"/><text fill="currentColor" x="-9" dy="0.32em">4,000</text></g><g class="tick" opacity="1" transform="translate(0,392)"><line stroke="currentColor" x2="-6"/><text fill="currentColor" x="-9" dy="0.32em">6,000</text></g><g class="tick" opacity="1" transform="translate(0,336)"><line stroke="currentColor" x2="-6"/><text fill="currentColor" x="-9" dy="0.32em">8,000</text></g><g class="tick" opacity="1" transform="translate(0,280)"><line stroke="currentColor" x2="-6"/><text fill="currentColor" x="-9" dy="0.32em">10,000</text></g><g class="tick" opacity="1" transform="translate(0,224)"><line stroke="currentColor" x2="-6"/><text fill="currentColor" x="-9" dy="0.32em">12,000</text></g><g class="tick" opacity="1" transform="translate(0,168.00000000000003)"><line stroke="currentColor" x2="-6"/><text fill="currentColor" x="-9" dy="0.32em">14,000</text></g><g class="tick" opacity="1" transform="translate(0,111.99999999999997)"><line stroke="currentColor" x2="-6"/><text fill="currentColor" x="-9" dy="0.32em">16,000</text></g><g class="tick" opacity="1" transform="translate(0,55.999999999999986)"><line stroke="currentColor" x2="-6"/><text fill="currentColor" x="-9" dy="0.32em">18,000</text></g><g class="tick" opacity="1" transform="translate(0,0)"><line stroke="currentColor" x2="-6"/><text fill="currentColor" x="-9" dy="0.32em">20,000</text></g></g><text y="556" x="745" text-anchor="end" style="font-family: Arial, sans-serif; font-size: 12px; fill: rgb(123, 123, 123); font-weight: bold;">source_file</text></g></g><g id="grid"><rect x="0" y="0" width="805" height="600" fill="none" stroke="#ccc"/></g></g><g id="legend" transform="translate(805,20)"><g transform="translate(5,0)"><g class="legendColor" transform="translate(0,0)"><g class="legendCells" transform="translate(0,16)"><g class="cell" transform="translate(0, 0)"><rect class="swatch" height="15" width="15" style="fill: rgb(31, 119, 180);"/><text class="label" transform="translate( 20, 12.5)" font-family="&quot;Arial&quot;, sans-serif" font-size="10px"><tspan x="0" dy="0em">distance</tspan></text></g></g><text class="legendTitle" font-family="&quot;Arial&quot;, sans-serif" font-size="12px" font-weight="bold"><tspan x="0" dy="0em">Colors</tspan></text></g></g></g></svg>